<mxfile host="app.diagrams.net" agent="Mozilla/5.0 (Windows NT 10.0; Win64; x64) AppleWebKit/537.36 (KHTML, like Gecko) Chrome/131.0.0.0 Safari/537.36 OPR/116.0.0.0" version="26.0.9">
  <diagram id="C5RBs43oDa-KdzZeNtuy" name="Page-1">
    <mxGraphModel dx="1236" dy="557" grid="1" gridSize="10" guides="1" tooltips="1" connect="1" arrows="1" fold="1" page="1" pageScale="1" pageWidth="827" pageHeight="1169" math="0" shadow="0">
      <root>
        <mxCell id="WIyWlLk6GJQsqaUBKTNV-0" />
        <mxCell id="WIyWlLk6GJQsqaUBKTNV-1" parent="WIyWlLk6GJQsqaUBKTNV-0" />
        <mxCell id="pvLGgvrdesgDJOa5gyGt-1" value="Account" style="swimlane;fontStyle=1;align=center;verticalAlign=top;childLayout=stackLayout;horizontal=1;startSize=26;horizontalStack=0;resizeParent=1;resizeParentMax=0;resizeLast=0;collapsible=1;marginBottom=0;whiteSpace=wrap;html=1;" vertex="1" parent="WIyWlLk6GJQsqaUBKTNV-1">
          <mxGeometry x="10" y="100" width="300" height="350" as="geometry" />
        </mxCell>
        <mxCell id="pvLGgvrdesgDJOa5gyGt-2" value="+ name: String&lt;div&gt;+ balance : float&lt;/div&gt;&lt;div&gt;+ main_user: User&lt;/div&gt;&lt;div&gt;+ transactions: List&amp;lt;Transaction&amp;gt;&lt;/div&gt;" style="text;strokeColor=none;fillColor=none;align=left;verticalAlign=top;spacingLeft=4;spacingRight=4;overflow=hidden;rotatable=0;points=[[0,0.5],[1,0.5]];portConstraint=eastwest;whiteSpace=wrap;html=1;" vertex="1" parent="pvLGgvrdesgDJOa5gyGt-1">
          <mxGeometry y="26" width="300" height="74" as="geometry" />
        </mxCell>
        <mxCell id="pvLGgvrdesgDJOa5gyGt-3" value="" style="line;strokeWidth=1;fillColor=none;align=left;verticalAlign=middle;spacingTop=-1;spacingLeft=3;spacingRight=3;rotatable=0;labelPosition=right;points=[];portConstraint=eastwest;strokeColor=inherit;" vertex="1" parent="pvLGgvrdesgDJOa5gyGt-1">
          <mxGeometry y="100" width="300" height="8" as="geometry" />
        </mxCell>
        <mxCell id="pvLGgvrdesgDJOa5gyGt-4" value="+ get_balance(): float&lt;div&gt;+ get_account_name(): String&lt;/div&gt;&lt;div&gt;+ change_main_user(): void&lt;/div&gt;&lt;div&gt;+ change_account:name(): void&lt;/div&gt;&lt;div&gt;+ change_balance(): Bool&lt;/div&gt;&lt;div&gt;+ check_user(): Bool&lt;/div&gt;&lt;div&gt;+ check_user_or_admin(): Bool&lt;/div&gt;&lt;div&gt;+ send_money(): void&lt;/div&gt;&lt;div&gt;+ get_transaction_history(): List&amp;lt;Transaction&amp;gt;&lt;/div&gt;&lt;div&gt;&lt;br&gt;&lt;/div&gt;&lt;div&gt;@staticmethods&lt;/div&gt;&lt;div&gt;+ error_message_no_acces(): void&lt;/div&gt;&lt;div&gt;+ error_message_negative_balance(): void&lt;/div&gt;&lt;div&gt;+ get_transactions_between(): List&amp;lt;Transaction&amp;gt;&lt;/div&gt;&lt;div&gt;+ get_transaction_from_to(): List&amp;lt;Transaction&amp;gt;&lt;/div&gt;&lt;div&gt;+ get_transaction_overview(): List&amp;lt;Transaction&amp;gt;&lt;/div&gt;" style="text;strokeColor=none;fillColor=none;align=left;verticalAlign=top;spacingLeft=4;spacingRight=4;overflow=hidden;rotatable=0;points=[[0,0.5],[1,0.5]];portConstraint=eastwest;whiteSpace=wrap;html=1;" vertex="1" parent="pvLGgvrdesgDJOa5gyGt-1">
          <mxGeometry y="108" width="300" height="242" as="geometry" />
        </mxCell>
      </root>
    </mxGraphModel>
  </diagram>
</mxfile>
